<?xml version="1.0" encoding="UTF-8"?>
<!DOCTYPE svg PUBLIC "-//W3C//DTD SVG 1.1//EN" "http://www.w3.org/Graphics/SVG/1.1/DTD/svg11.dtd">
<!-- Creator: CorelDRAW -->
<svg xmlns="http://www.w3.org/2000/svg" xml:space="preserve" width="74.1055mm" height="76.9651mm" version="1.1" style="shape-rendering:geometricPrecision; text-rendering:geometricPrecision; image-rendering:optimizeQuality; fill-rule:evenodd; clip-rule:evenodd"
viewBox="0 0 5452.65 5663.06"
 xmlns:xlink="http://www.w3.org/1999/xlink"
 xmlns:xodm="http://www.corel.com/coreldraw/odm/2003">
 <defs>
  <style type="text/css">
   <![CDATA[
    .fil4 {fill:black}
    .fil2 {fill:#090809}
    .fil3 {fill:#E30613}
    .fil1 {fill:white}
    .fil0 {fill:#090809;fill-rule:nonzero}
   ]]>
  </style>
 </defs>
 <g id="Capa_x0020_1">
  <metadata id="CorelCorpID_0Corel-Layer"/>
  <g>
   <path class="fil0" d="M4852.73 3366.43l-37.16 -11.15 0 -0.01 3.13 -11.22 2.89 -11.54 2.61 -11.8 2.33 -12.04 2.02 -12.23 1.68 -12.35 1.32 -12.46 0.96 -12.51 0.57 -12.52 0.15 -12.49 -0.26 -12.42 -0.7 -12.3 -1.16 -12.14 -1.63 -11.93 -2.1 -11.68 -2.62 -11.39 -3.11 -11.07 -3.63 -10.7 -4.16 -10.3 -4.69 -9.87 -5.25 -9.4 -5.79 -8.92 -6.36 -8.4 -6.95 -7.87 -7.57 -7.32 -8.21 -6.78 -8.9 -6.2 -9.62 -5.6 -10.41 -4.97 -11.24 -4.32 -12.1 -3.62 -13.02 -2.87 6.8 -38.26 15.72 3.46 14.9 4.46 14.05 5.39 13.22 6.33 12.36 7.19 11.51 8.01 10.64 8.76 9.79 9.48 8.93 10.12 8.1 10.68 7.29 11.21 6.5 11.66 5.75 12.06 5.02 12.42 4.33 12.74 3.66 12.99 3.03 13.21 2.43 13.41 1.85 13.55 1.31 13.67 0.79 13.74 0.29 13.79 -0.18 13.79 -0.62 13.76 -1.04 13.7 -1.46 13.6 -1.82 13.46 -2.19 13.29 -2.52 13.08 -2.85 12.85 -3.14 12.56 -3.42 12.25 0 -0.01zm-526.59 1781.1l-37.2 -11.01 0.06 -0.21 16.64 -55.2 16.64 -55.3 16.64 -55.4 16.64 -55.49 16.61 -55.56 16.61 -55.64 16.61 -55.71 16.59 -55.77 16.59 -55.82 16.58 -55.86 16.56 -55.9 16.56 -55.93 16.54 -55.95 16.53 -55.98 16.51 -55.97 16.5 -55.97 16.48 -55.97 16.47 -55.95 16.45 -55.94 16.43 -55.91 16.41 -55.86 16.39 -55.82 16.36 -55.77 16.35 -55.71 32.63 -111.21 32.52 -110.89 16.23 -55.31 16.19 -55.2 16.18 -55.09 16.14 -54.97 37.16 11.15 -16.14 54.97 -16.17 55.09 -16.19 55.2 -16.23 55.3 -32.52 110.89 -32.63 111.22 -16.35 55.71 -16.37 55.77 -16.39 55.82 -16.41 55.88 -16.43 55.91 -16.45 55.94 -16.47 55.96 -16.48 55.97 -16.5 55.99 -16.53 55.99 -16.53 55.98 -16.54 55.96 -16.56 55.94 -16.57 55.91 -16.58 55.88 -16.59 55.84 -16.61 55.78 -16.61 55.72 -16.61 55.66 -16.63 55.59 -16.64 55.5 -16.64 55.41 -16.65 55.32 -16.64 55.21 0.06 -0.21zm-37.2 -11.01l0.06 -0.21 0.07 -0.23 -0.13 0.44zm-109.84 486.18l-20.06 -33.38 0 0.01 7.85 -5.42 7.56 -6.59 7.29 -7.78 7 -8.95 6.69 -10.07 6.36 -11.14 6.03 -12.13 5.67 -13.03 5.33 -13.85 4.99 -14.59 4.66 -15.25 4.36 -15.83 4.06 -16.31 3.78 -16.73 3.53 -17.06 3.3 -17.31 3.09 -17.48 2.91 -17.59 2.74 -17.61 2.6 -17.55 2.49 -17.42 2.41 -17.22 2.35 -16.95 2.3 -16.6 2.3 -16.18 2.31 -15.7 2.36 -15.15 2.44 -14.52 2.53 -13.85 2.68 -13.12 2.85 -12.34 3.08 -11.5 37.2 11.01 -2.69 10.07 -2.59 11.21 -2.49 12.24 -2.41 13.19 -2.35 14.02 -2.3 14.77 -2.28 15.44 -2.27 16.02 -2.3 16.54 -2.35 16.96 -2.41 17.31 -2.52 17.6 -2.65 17.78 -2.79 17.92 -2.97 17.98 -3.18 17.95 -3.41 17.87 -3.66 17.7 -3.96 17.48 -4.28 17.18 -4.62 16.81 -5.02 16.39 -5.43 15.89 -5.89 15.32 -6.4 14.69 -6.95 13.99 -7.56 13.24 -8.25 12.4 -8.98 11.47 -9.79 10.46 -10.68 9.3 -11.6 7.98 0 0.01zm-611.24 -33.3l2.58 -38.81 0 0 14.29 1.33 15 1.95 15.69 2.49 16.35 2.97 16.97 3.38 17.56 3.73 18.1 4.01 18.59 4.24 19.04 4.41 19.43 4.51 19.79 4.55 20.08 4.53 20.33 4.46 20.51 4.32 20.65 4.12 20.73 3.86 20.74 3.54 20.72 3.16 20.62 2.71 20.48 2.22 20.26 1.66 20 1.04 19.68 0.38 19.29 -0.35 18.84 -1.12 18.34 -1.94 17.78 -2.81 17.16 -3.72 16.49 -4.69 15.78 -5.67 15.04 -6.72 14.27 -7.81 20.06 33.38 -17.06 9.33 -17.76 7.94 -18.37 6.61 -18.93 5.38 -19.41 4.22 -19.84 3.13 -20.2 2.13 -20.52 1.22 -20.81 0.38 -21.03 -0.4 -21.21 -1.12 -21.34 -1.74 -21.43 -2.33 -21.45 -2.83 -21.44 -3.26 -21.37 -3.64 -21.26 -3.96 -21.09 -4.21 -20.87 -4.39 -20.59 -4.52 -20.29 -4.58 -19.9 -4.58 -19.46 -4.51 -18.97 -4.39 -18.42 -4.21 -17.81 -3.95 -17.14 -3.64 -16.41 -3.26 -15.61 -2.83 -14.73 -2.34 -13.77 -1.79 -12.74 -1.18 0 0zm-439.2 66.55l0.65 -38.89 0 0 16.43 0.12 15.9 -0.34 15.42 -0.77 14.99 -1.16 14.57 -1.52 14.19 -1.85 13.88 -2.16 13.57 -2.41 13.3 -2.66 13.08 -2.87 12.89 -3.05 12.72 -3.2 12.6 -3.31 12.51 -3.41 12.46 -3.47 12.43 -3.49 12.44 -3.49 12.47 -3.44 12.55 -3.37 12.66 -3.26 12.77 -3.11 12.94 -2.94 13.14 -2.72 13.35 -2.46 13.6 -2.16 13.87 -1.84 14.18 -1.48 14.49 -1.07 14.85 -0.63 15.22 -0.17 15.62 0.35 16.03 0.88 -2.58 38.81 -14.78 -0.82 -14.34 -0.32 -13.97 0.15 -13.63 0.59 -13.33 0.99 -13.06 1.36 -12.84 1.71 -12.64 2.02 -12.49 2.3 -12.36 2.55 -12.28 2.79 -12.24 2.98 -12.21 3.14 -12.22 3.28 -12.28 3.39 -12.35 3.46 -12.46 3.5 -12.6 3.5 -12.77 3.48 -12.97 3.41 -13.19 3.32 -13.45 3.18 -13.73 3.02 -14.06 2.81 -14.39 2.56 -14.76 2.29 -15.16 1.98 -15.57 1.62 -16.02 1.24 -16.51 0.82 -16.99 0.35 -17.52 -0.12 0 0zm-377.55 -79.52l-1.22 -38.88 0 0 15.25 -0.17 14.66 0.32 14.12 0.77 13.6 1.21 13.13 1.6 12.67 1.97 12.25 2.3 11.88 2.6 11.52 2.87 11.21 3.09 10.93 3.29 10.69 3.44 10.49 3.58 10.32 3.66 10.18 3.72 10.11 3.75 10.06 3.75 10.05 3.72 10.1 3.65 10.18 3.56 10.32 3.46 10.49 3.31 10.71 3.16 10.99 2.97 11.31 2.76 11.67 2.52 12.1 2.25 12.55 1.97 13.08 1.66 13.63 1.31 14.25 0.93 14.91 0.54 -0.65 38.89 -16.03 -0.58 -15.41 -1.01 -14.78 -1.43 -14.22 -1.79 -13.69 -2.15 -13.17 -2.46 -12.71 -2.74 -12.27 -2.99 -11.88 -3.2 -11.51 -3.39 -11.17 -3.53 -10.88 -3.63 -10.62 -3.72 -10.41 -3.77 -10.23 -3.77 -10.09 -3.76 -9.99 -3.71 -9.93 -3.62 -9.92 -3.53 -9.94 -3.38 -10.03 -3.24 -10.13 -3.05 -10.3 -2.84 -10.52 -2.62 -10.76 -2.35 -11.09 -2.07 -11.45 -1.78 -11.86 -1.45 -12.32 -1.09 -12.84 -0.71 -13.38 -0.29 -14.01 0.15 0 0zm-420.14 61.14l2.85 -38.78 0 0 17.18 1.13 16.5 0.66 15.89 0.23 15.29 -0.19 14.75 -0.58 14.25 -0.93 13.78 -1.26 13.35 -1.57 12.99 -1.84 12.64 -2.09 12.34 -2.31 12.07 -2.51 11.87 -2.69 11.68 -2.83 11.55 -2.95 11.44 -3.05 11.38 -3.12 11.36 -3.16 11.37 -3.18 11.42 -3.17 11.5 -3.13 11.62 -3.05 11.77 -2.95 11.96 -2.82 12.18 -2.65 12.42 -2.45 12.71 -2.22 13.02 -1.97 13.37 -1.66 13.73 -1.35 14.13 -0.99 14.57 -0.6 1.22 38.88 -13.47 0.56 -13.05 0.92 -12.7 1.24 -12.35 1.55 -12.09 1.82 -11.85 2.07 -11.64 2.3 -11.5 2.5 -11.37 2.67 -11.29 2.83 -11.25 2.96 -11.25 3.05 -11.27 3.13 -11.35 3.18 -11.45 3.19 -11.6 3.18 -11.77 3.13 -11.96 3.07 -12.21 2.96 -12.49 2.82 -12.78 2.66 -13.12 2.46 -13.48 2.22 -13.88 1.97 -14.31 1.67 -14.77 1.35 -15.25 1 -15.77 0.61 -16.32 0.21 -16.9 -0.24 -17.5 -0.69 -18.15 -1.21 0 0zm-371.83 -78.78l-3.66 -38.75 -0.01 0 16.32 -1.23 15.64 -0.66 15 -0.14 14.39 0.36 13.83 0.84 13.31 1.27 12.82 1.69 12.36 2.07 11.94 2.41 11.55 2.72 11.21 2.99 10.88 3.22 10.62 3.41 10.37 3.58 10.18 3.7 10.07 3.8 19.68 7.68 19.78 7.7 9.88 3.74 10.05 3.66 10.23 3.55 10.45 3.4 10.71 3.23 11.05 3.04 11.43 2.83 11.85 2.58 12.34 2.3 12.87 2.01 13.46 1.68 14.11 1.33 -2.85 38.78 -15.27 -1.43 -14.62 -1.82 -14.03 -2.19 -13.47 -2.52 -12.94 -2.82 -12.44 -3.08 -11.99 -3.29 -11.58 -3.5 -11.2 -3.65 -10.86 -3.77 -10.57 -3.84 -10.35 -3.91 -19.9 -7.76 -19.56 -7.62 -9.59 -3.63 -9.65 -3.51 -9.68 -3.33 -9.79 -3.16 -9.94 -2.94 -10.13 -2.69 -10.4 -2.45 -10.69 -2.16 -11.07 -1.85 -11.48 -1.52 -11.94 -1.15 -12.48 -0.75 -13.05 -0.33 -13.69 0.13 -14.37 0.62 -15.1 1.14 -0.01 0zm-302.13 -361.48l37.14 11.23 0.02 -0.08 -14.44 50.57 -12.6 46.2 -10.8 41.99 -9.03 37.94 -7.29 34.03 -5.58 30.26 -3.91 26.64 -2.3 23.1 -0.75 19.66 0.68 16.28 1.93 12.93 2.88 9.69 3.44 6.75 3.77 4.51 4.36 3.19 5.7 2.4 7.62 1.6 9.68 0.58 11.63 -0.57 13.42 -1.7 15.02 -2.74 16.51 -3.66 17.9 -4.39 19.19 -4.95 20.43 -5.35 21.63 -5.57 22.76 -5.6 23.85 -5.45 24.91 -5.13 25.93 -4.63 26.92 -3.94 27.84 -3.07 3.66 38.75 -26.43 2.91 -25.65 3.76 -24.83 4.42 -24 4.95 -23.14 5.29 -22.24 5.47 -21.35 5.5 -20.42 5.35 -19.48 5.03 -18.55 4.55 -17.63 3.89 -16.75 3.05 -15.92 2.01 -15.21 0.71 -14.62 -0.92 -14.06 -3.03 -13.28 -5.7 -11.87 -8.72 -9.65 -11.56 -7.11 -13.82 -4.72 -15.74 -2.66 -17.68 -0.85 -19.88 0.85 -22.38 2.51 -25.17 4.15 -28.21 5.81 -31.5 7.5 -35 9.2 -38.7 10.96 -42.6 12.73 -46.7 14.55 -50.97 0.02 -0.08zm-0.02 0.08l0.02 -0.08 0.09 -0.31 -0.11 0.39zm684.81 -2179.35l-647.65 2190.49 -37.14 -11.23 647.65 -2190.49 18.59 -13.83 18.56 25.06zm-37.14 -11.23l4.11 -13.91 14.47 0.07 -18.59 13.83zm2405.86 -1.06l-6.8 38.26 3.38 0.32 -151.39 -0.79 -150.43 -0.79 -149.61 -0.78 -148.93 -0.78 -148.38 -0.78 -147.97 -0.77 -147.69 -0.78 -147.56 -0.77 -147.56 -0.77 -147.69 -0.77 -147.96 -0.77 -148.38 -0.77 -148.93 -0.78 -149.61 -0.78 -150.43 -0.78 -151.39 -0.79 0.03 -38.89 151.39 0.79 150.43 0.78 149.61 0.78 148.93 0.78 148.38 0.77 147.96 0.77 147.69 0.77 147.56 0.77 147.56 0.77 147.69 0.78 147.97 0.77 148.38 0.78 148.93 0.78 149.61 0.78 150.43 0.79 151.39 0.79 3.38 0.32zm-3.38 -0.32l1.71 0.01 1.68 0.31 -3.38 -0.32z"/>
   <path id="_1" class="fil1" d="M4707.12 3024.88c158.06,29.03 163.32,212.57 127.04,335.97 -172.04,585.69 -349.03,1192.89 -526.62,1781.18 -31.71,109.58 -31.44,399.43 -138.47,463.99 -162.97,98.27 -460.62,-26.05 -599.92,-36.02 -166.67,-11.93 -256.23,70.42 -440.16,66.5 -168.67,-3.58 -219.15,-83.84 -378.49,-79.52 -151.84,4.14 -226.08,76.31 -418.1,61.19 -160.2,-12.62 -203.62,-94.37 -375.09,-78.77 -293.97,26.73 -446.13,228.73 -281.72,-336.49l647.65 -2190.49c810.21,4.2 1573.67,8.23 2383.89,12.46z"/>
  </g>
  <path class="fil2" d="M1540.44 0l2155.32 0c148.69,0 235.55,121.64 193.04,270.34l-602.49 2107.16c-42.51,148.69 -198.94,270.34 -347.63,270.34l-2155.32 0c-148.7,0 -235.56,-121.65 -193.04,-270.34l602.49 -2107.16c42.51,-148.7 198.94,-270.34 347.64,-270.34z"/>
  <path class="fil3" d="M536.22 3016.7l1243.04 0c73.78,0 116.49,60.36 94.92,134.15l-357.25 1222.02c-21.58,73.79 -99.59,134.15 -173.37,134.15l-1243.04 0c-73.78,0 -116.49,-60.36 -94.92,-134.15l357.25 -1222.02c21.58,-73.79 99.59,-134.15 173.37,-134.15z"/>
  <path class="fil3" d="M4108.34 1107.95l1243.04 0c73.78,0 116.95,60.36 95.95,134.15l-348.01 1222.02c-21.01,73.79 -98.57,134.15 -172.35,134.15l-1243.04 0c-73.78,0 -116.95,-60.36 -95.94,-134.15l348 -1222.02c21.01,-73.79 98.57,-134.15 172.35,-134.15z"/>
  <g id="_2337924297968">
   <path class="fil4" d="M2709.8 3646.17l789.34 0c34.98,0 63.6,28.62 63.6,63.59l0 0.01c0,34.98 -28.62,63.6 -63.6,63.6l-789.34 0c-34.99,0 -63.6,-28.62 -63.6,-63.6l0 -0.01c0,-34.98 28.62,-63.59 63.6,-63.59z"/>
   <path class="fil4" d="M2608.09 3976.75l789.34 0c34.98,0 63.59,28.62 63.59,63.6l0 0.01c0,34.98 -28.62,63.59 -63.59,63.59l-789.34 0c-34.99,0 -63.6,-28.62 -63.6,-63.59l0 -0.01c0,-34.99 28.62,-63.6 63.6,-63.6z"/>
   <path class="fil4" d="M2526.05 4261.57l789.35 0c34.98,0 63.59,28.62 63.59,63.59l0 0.01c0,34.98 -28.62,63.6 -63.59,63.6l-789.35 0c-34.98,0 -63.59,-28.62 -63.59,-63.6l0 -0.01c0,-34.98 28.62,-63.59 63.59,-63.59z"/>
   <path class="fil4" d="M2429.78 4592.15l789.35 0c34.98,0 63.59,28.62 63.59,63.6l0 0.01c0,34.98 -28.62,63.59 -63.59,63.59l-789.35 0c-34.98,0 -63.59,-28.62 -63.59,-63.59l0 -0.01c0,-34.98 28.62,-63.6 63.59,-63.6z"/>
   <path class="fil4" d="M2336.33 4901.6l789.34 0c34.98,0 63.6,28.62 63.6,63.59l0 0.01c0,34.98 -28.62,63.6 -63.6,63.6l-789.34 0c-34.99,0 -63.6,-28.62 -63.6,-63.6l0 -0.01c0,-34.98 28.62,-63.59 63.6,-63.59z"/>
   <path class="fil4" d="M2252.06 5197.37l789.34 0c34.98,0 63.6,28.62 63.6,63.59l0 0.01c0,34.99 -28.62,63.6 -63.6,63.6l-789.34 0c-34.98,0 -63.6,-28.62 -63.6,-63.6l0 -0.01c0,-34.98 28.62,-63.59 63.6,-63.59z"/>
   <path class="fil4" d="M3804.43 3656.52l371.49 0c29.28,0 53.24,23.96 53.24,53.24l0 0.01c0,29.28 -23.96,53.24 -53.24,53.24l-371.49 0c-29.28,0 -53.24,-23.96 -53.24,-53.24l0 -0.01c0,-29.28 23.96,-53.24 53.24,-53.24z"/>
   <path class="fil4" d="M3706.31 3987.11l371.49 0c29.28,0 53.24,23.95 53.24,53.24l0 0.01c0,29.28 -23.96,53.24 -53.24,53.24l-371.49 0c-29.29,0 -53.24,-23.96 -53.24,-53.24l0 -0.01c0,-29.29 23.95,-53.24 53.24,-53.24z"/>
   <path class="fil4" d="M3619.75 4271.92l371.5 0c29.28,0 53.24,23.96 53.24,53.24l0 0.01c0,29.29 -23.96,53.24 -53.24,53.24l-371.5 0c-29.28,0 -53.24,-23.95 -53.24,-53.24l0 -0.01c0,-29.28 23.96,-53.24 53.24,-53.24z"/>
   <path class="fil4" d="M3517.68 4602.51l371.49 0c29.29,0 53.24,23.95 53.24,53.24l0 0.01c0,29.28 -23.95,53.24 -53.24,53.24l-371.49 0c-29.28,0 -53.24,-23.96 -53.24,-53.24l0 -0.01c0,-29.29 23.96,-53.24 53.24,-53.24z"/>
   <path class="fil4" d="M3433.64 4907.66l371.49 0c29.28,0 53.24,23.96 53.24,53.24l0 0.01c0,29.28 -23.96,53.24 -53.24,53.24l-371.49 0c-29.28,0 -53.24,-23.96 -53.24,-53.24l0 -0.01c0,-29.28 23.96,-53.24 53.24,-53.24z"/>
   <path class="fil4" d="M3344.97 5207.73l371.5 0c29.28,0 53.24,23.96 53.24,53.24l0 0.01c0,29.29 -23.96,53.24 -53.24,53.24l-371.5 0c-29.28,0 -53.23,-23.95 -53.23,-53.24l0 -0.01c0,-29.28 23.95,-53.24 53.23,-53.24z"/>
   <path class="fil2" d="M3129.71 3390.63l789.34 0c34.99,0 63.6,28.62 63.6,63.6l0 0.01c0,34.98 -28.62,63.59 -63.6,63.59l-789.34 0c-34.98,0 -63.6,-28.62 -63.6,-63.59l0 -0.01c0,-34.99 28.62,-63.6 63.6,-63.6z"/>
  </g>
  <circle class="fil3" cx="2239.55" cy="1323.91" r="455.07"/>
 </g>
</svg>
